<svg width="176" height="47" viewBox="0 0 176 47" fill="none" xmlns="http://www.w3.org/2000/svg">
<path d="M26.6765 34.35C25.4605 34.35 24.4792 34.1047 23.7325 33.614C22.9965 33.1127 22.4952 32.4193 22.2285 31.534L24.9965 30.11C25.3379 30.9633 25.9885 31.39 26.9485 31.39C27.7059 31.39 28.1219 31.1927 28.1965 30.798C28.2179 30.67 28.1965 30.558 28.1325 30.462C28.0685 30.366 27.9565 30.2807 27.7965 30.206C27.6365 30.1313 27.4872 30.0673 27.3485 30.014C27.2099 29.9607 27.0125 29.8967 26.7565 29.822C26.5112 29.7473 26.3192 29.6887 26.1805 29.646C24.1965 28.9527 23.3592 27.726 23.6685 25.966C23.8499 24.9633 24.3405 24.158 25.1405 23.55C25.9405 22.942 26.9165 22.638 28.0685 22.638C29.0285 22.638 29.8499 22.862 30.5325 23.31C31.2152 23.758 31.7325 24.4033 32.0845 25.246L29.3805 26.686C29.1032 25.9607 28.5965 25.598 27.8605 25.598C27.3059 25.598 26.9859 25.79 26.9005 26.174C26.8579 26.4087 26.9539 26.6007 27.1885 26.75C27.4232 26.8993 27.9032 27.0967 28.6285 27.342C29.0872 27.4913 29.4659 27.646 29.7645 27.806C30.0739 27.9553 30.3832 28.1687 30.6925 28.446C31.0125 28.7233 31.2259 29.0807 31.3325 29.518C31.4499 29.9553 31.4605 30.4673 31.3645 31.054C31.1725 32.142 30.6659 32.9633 29.8445 33.518C29.0339 34.0727 27.9779 34.35 26.6765 34.35ZM39.0435 22.894C40.1315 22.894 41.0169 23.278 41.6995 24.046C42.3929 24.8033 42.6489 25.8113 42.4675 27.07C42.2969 28.2433 41.7902 29.182 40.9475 29.886C40.1155 30.5793 39.0382 30.926 37.7155 30.926H36.4355L35.8755 34.094H32.6755L34.6435 22.894H39.0435ZM39.2995 26.91C39.3529 26.6113 39.2942 26.3873 39.1235 26.238C38.9529 26.078 38.7449 25.998 38.4995 25.998H37.2995L36.9795 27.822H38.2595C38.5049 27.822 38.7289 27.742 38.9315 27.582C39.1342 27.4113 39.2569 27.1873 39.2995 26.91ZM52.9912 26.974C52.7565 28.3393 52.0098 29.342 50.7512 29.982L52.1912 34.078H48.9912L47.8392 30.558H46.8152L46.1912 34.078H42.9912L44.9752 22.878H49.4552C50.6178 22.878 51.5512 23.2673 52.2552 24.046C52.9592 24.814 53.2045 25.79 52.9912 26.974ZM47.6472 25.822L47.2792 27.902H48.5912C48.9005 27.9127 49.1618 27.8273 49.3752 27.646C49.5992 27.4647 49.7378 27.2087 49.7912 26.878C49.8445 26.5473 49.7912 26.2913 49.6312 26.11C49.4818 25.918 49.2472 25.822 48.9272 25.822H47.6472ZM59.4429 34.35C58.2269 34.35 57.1869 34.0513 56.3229 33.454C55.4589 32.846 54.8562 32.0887 54.5149 31.182C54.1842 30.2647 54.0989 29.3047 54.2589 28.302C54.5149 26.7553 55.2456 25.4273 56.4509 24.318C57.6669 23.198 59.1602 22.638 60.9309 22.638C61.8482 22.638 62.6696 22.814 63.3949 23.166C64.1202 23.5073 64.6909 23.9607 65.1069 24.526C65.5229 25.0913 65.8162 25.7313 65.9869 26.446C66.1576 27.15 66.1842 27.8753 66.0669 28.622C65.8216 30.1793 65.1016 31.5233 63.9069 32.654C62.7229 33.7847 61.2349 34.35 59.4429 34.35ZM57.8589 30.446C58.2856 30.958 58.8936 31.214 59.6829 31.214C60.4722 31.214 61.1709 30.958 61.7789 30.446C62.3869 29.9233 62.7602 29.2727 62.8989 28.494C63.0376 27.7153 62.8936 27.07 62.4669 26.558C62.0402 26.0353 61.4322 25.774 60.6429 25.774C59.8536 25.774 59.1549 26.0353 58.5469 26.558C57.9389 27.07 57.5656 27.7153 57.4269 28.494C57.2882 29.2727 57.4322 29.9233 57.8589 30.446ZM76.8028 26.206C76.6108 27.1873 76.1041 27.9233 75.2828 28.414C76.1255 29.0113 76.4615 29.8593 76.2908 30.958C76.1521 31.8967 75.6881 32.654 74.8988 33.23C74.1201 33.806 73.1015 34.094 71.8428 34.094H67.1068L69.0748 22.894H73.3628C74.5788 22.894 75.5015 23.2087 76.1308 23.838C76.7601 24.4567 76.9841 25.246 76.8028 26.206ZM72.8508 25.646H71.7948L71.5228 27.15L72.7548 27.134C73.2241 27.07 73.4961 26.8247 73.5708 26.398C73.6135 26.1313 73.5601 25.9393 73.4108 25.822C73.2721 25.7047 73.0855 25.646 72.8508 25.646ZM73.1708 30.542C73.2561 30.0833 73.0748 29.822 72.6268 29.758L71.0748 29.742L70.7868 31.342H72.1308C72.3975 31.342 72.6215 31.2727 72.8028 31.134C72.9948 30.9847 73.1175 30.7873 73.1708 30.542ZM86.3303 25.806H82.2503L82.0423 27.022H85.7223L85.2103 29.902H81.5303L81.3063 31.15H85.4663L84.9543 34.094H77.5943L79.5623 22.894H86.8423L86.3303 25.806ZM99.2768 27.486L99.0528 28.814C98.7755 30.4673 98.0661 31.806 96.9248 32.83C95.7835 33.8433 94.3595 34.35 92.6528 34.35C90.9035 34.35 89.5435 33.7793 88.5728 32.638C87.6128 31.486 87.2768 30.0513 87.5648 28.334C87.8421 26.6593 88.5995 25.294 89.8368 24.238C91.0741 23.1713 92.5248 22.638 94.1888 22.638C95.2768 22.638 96.2155 22.8727 97.0048 23.342C97.7941 23.8007 98.4181 24.43 98.8768 25.23L95.9488 26.814C95.5115 26.1207 94.8181 25.774 93.8688 25.774C93.1008 25.774 92.4235 26.03 91.8368 26.542C91.2501 27.0433 90.8875 27.694 90.7488 28.494C90.6101 29.2727 90.7435 29.95 91.1488 30.526C91.5541 31.0913 92.1408 31.374 92.9088 31.374C94.0395 31.374 94.8555 30.9847 95.3568 30.206H93.1008L93.5808 27.486H99.2768ZM105.94 34.35C104.724 34.35 103.684 34.0513 102.82 33.454C101.956 32.846 101.353 32.0887 101.012 31.182C100.681 30.2647 100.596 29.3047 100.756 28.302C101.012 26.7553 101.742 25.4273 102.948 24.318C104.164 23.198 105.657 22.638 107.428 22.638C108.345 22.638 109.166 22.814 109.892 23.166C110.617 23.5073 111.188 23.9607 111.604 24.526C112.02 25.0913 112.313 25.7313 112.484 26.446C112.654 27.15 112.681 27.8753 112.564 28.622C112.318 30.1793 111.598 31.5233 110.404 32.654C109.22 33.7847 107.732 34.35 105.94 34.35ZM104.356 30.446C104.782 30.958 105.39 31.214 106.18 31.214C106.969 31.214 107.668 30.958 108.276 30.446C108.884 29.9233 109.257 29.2727 109.396 28.494C109.534 27.7153 109.39 27.07 108.964 26.558C108.537 26.0353 107.929 25.774 107.14 25.774C106.35 25.774 105.652 26.0353 105.044 26.558C104.436 27.07 104.062 27.7153 103.924 28.494C103.785 29.2727 103.929 29.9233 104.356 30.446ZM127.252 22.894L125.284 34.094H122.084L123.028 28.702L119.892 32.83H119.604L117.78 28.494L116.804 34.094H113.604L115.572 22.894H118.772L120.452 27.486L123.892 22.894H127.252Z" fill="white"/>
<path d="M138.264 34.094L138.136 32.654H134.904L134.264 34.094H130.728L136.264 22.894H140.008L141.608 34.094H138.264ZM136.04 30.094H137.896L137.576 26.654L136.04 30.094ZM144.782 34.094L143.262 22.894H146.574L147.102 30.334L150.254 22.894H153.822L148.366 34.094H144.782ZM163.096 22.894L162.552 25.998H159.912L158.488 34.094H155.288L156.712 25.998H154.072L154.616 22.894H163.096ZM168.209 34.35C166.993 34.35 165.953 34.0513 165.089 33.454C164.225 32.846 163.622 32.0887 163.281 31.182C162.95 30.2647 162.865 29.3047 163.025 28.302C163.281 26.7553 164.011 25.4273 165.217 24.318C166.433 23.198 167.926 22.638 169.697 22.638C170.614 22.638 171.435 22.814 172.161 23.166C172.886 23.5073 173.457 23.9607 173.873 24.526C174.289 25.0913 174.582 25.7313 174.753 26.446C174.923 27.15 174.95 27.8753 174.833 28.622C174.587 30.1793 173.867 31.5233 172.673 32.654C171.489 33.7847 170.001 34.35 168.209 34.35ZM166.625 30.446C167.051 30.958 167.659 31.214 168.449 31.214C169.238 31.214 169.937 30.958 170.545 30.446C171.153 29.9233 171.526 29.2727 171.665 28.494C171.803 27.7153 171.659 27.07 171.233 26.558C170.806 26.0353 170.198 25.774 169.409 25.774C168.619 25.774 167.921 26.0353 167.313 26.558C166.705 27.07 166.331 27.7153 166.193 28.494C166.054 29.2727 166.198 29.9233 166.625 30.446Z" fill="#FBBF24"/>
<path d="M26.0966 44.1797L25.7536 43.1927H23.6676L23.3246 44.1797H22.4496L24.2276 39.2797H25.1936L26.9646 44.1797H26.0966ZM23.9336 42.4367H25.4876L24.7106 40.2247L23.9336 42.4367ZM30.9355 41.6387C31.1501 41.7507 31.3181 41.9047 31.4395 42.1007C31.5608 42.2967 31.6215 42.523 31.6215 42.7797C31.6215 43.181 31.4791 43.5147 31.1945 43.7807C30.9098 44.0467 30.5621 44.1797 30.1515 44.1797H28.0515V39.2797H29.9975C30.3988 39.2797 30.7371 39.4104 31.0125 39.6717C31.2925 39.9284 31.4325 40.2504 31.4325 40.6377C31.4325 41.0624 31.2668 41.396 30.9355 41.6387ZM29.9975 40.0357H28.8565V41.3237H29.9975C30.1748 41.3237 30.3241 41.263 30.4455 41.1417C30.5668 41.0157 30.6275 40.8617 30.6275 40.6797C30.6275 40.4977 30.5668 40.346 30.4455 40.2247C30.3241 40.0987 30.1748 40.0357 29.9975 40.0357ZM30.1515 43.4237C30.3381 43.4237 30.4945 43.3584 30.6205 43.2277C30.7511 43.0924 30.8165 42.929 30.8165 42.7377C30.8165 42.5464 30.7511 42.3854 30.6205 42.2547C30.4945 42.1194 30.3381 42.0517 30.1515 42.0517H28.8565V43.4237H30.1515ZM35.9322 39.2797V40.0497H34.5532V44.1797H33.7482V40.0497H32.3622V39.2797H35.9322ZM40.9022 43.5357C40.4122 44.0257 39.8125 44.2707 39.1032 44.2707C38.3939 44.2707 37.7919 44.0257 37.2972 43.5357C36.8072 43.041 36.5622 42.439 36.5622 41.7297C36.5622 41.0204 36.8072 40.4207 37.2972 39.9307C37.7919 39.436 38.3939 39.1887 39.1032 39.1887C39.8125 39.1887 40.4122 39.436 40.9022 39.9307C41.3969 40.4207 41.6442 41.0204 41.6442 41.7297C41.6442 42.439 41.3969 43.041 40.9022 43.5357ZM37.8642 42.9897C38.2002 43.321 38.6132 43.4867 39.1032 43.4867C39.5932 43.4867 40.0039 43.321 40.3352 42.9897C40.6712 42.6537 40.8392 42.2337 40.8392 41.7297C40.8392 41.2257 40.6712 40.808 40.3352 40.4767C40.0039 40.1407 39.5932 39.9727 39.1032 39.9727C38.6132 39.9727 38.2002 40.1407 37.8642 40.4767C37.5329 40.808 37.3672 41.2257 37.3672 41.7297C37.3672 42.2337 37.5329 42.6537 37.8642 42.9897ZM47.6285 39.2797V44.1797H46.8235V40.6867L45.3325 43.1507H45.2345L43.7435 40.6797V44.1797H42.9385V39.2797H43.8065L45.2835 41.7297L46.7675 39.2797H47.6285ZM53.2605 43.5357C52.7705 44.0257 52.1708 44.2707 51.4615 44.2707C50.7522 44.2707 50.1502 44.0257 49.6555 43.5357C49.1655 43.041 48.9205 42.439 48.9205 41.7297C48.9205 41.0204 49.1655 40.4207 49.6555 39.9307C50.1502 39.436 50.7522 39.1887 51.4615 39.1887C52.1708 39.1887 52.7705 39.436 53.2605 39.9307C53.7552 40.4207 54.0025 41.0204 54.0025 41.7297C54.0025 42.439 53.7552 43.041 53.2605 43.5357ZM50.2225 42.9897C50.5585 43.321 50.9715 43.4867 51.4615 43.4867C51.9515 43.4867 52.3622 43.321 52.6935 42.9897C53.0295 42.6537 53.1975 42.2337 53.1975 41.7297C53.1975 41.2257 53.0295 40.808 52.6935 40.4767C52.3622 40.1407 51.9515 39.9727 51.4615 39.9727C50.9715 39.9727 50.5585 40.1407 50.2225 40.4767C49.8912 40.808 49.7255 41.2257 49.7255 41.7297C49.7255 42.2337 49.8912 42.6537 50.2225 42.9897ZM57.1518 41.1697C57.6044 41.1697 57.9801 41.312 58.2788 41.5967C58.5774 41.8814 58.7268 42.2407 58.7268 42.6747C58.7268 43.1087 58.5774 43.468 58.2788 43.7527C57.9801 44.0374 57.6044 44.1797 57.1518 44.1797H55.2968V39.2797H58.3068V40.0497H56.1018V41.1697H57.1518ZM57.1518 43.4237C57.3711 43.4237 57.5531 43.356 57.6978 43.2207C57.8471 43.0807 57.9218 42.8987 57.9218 42.6747C57.9218 42.4507 57.8471 42.271 57.6978 42.1357C57.5531 41.9957 57.3711 41.9257 57.1518 41.9257H56.1018V43.4237H57.1518ZM62.8915 44.1797V40.8547L60.5815 44.1797H59.9515V39.2797H60.7565V42.6047L63.0665 39.2797H63.6965V44.1797H62.8915ZM64.8361 44.1797V43.4377C65.1441 43.4797 65.3728 43.405 65.5221 43.2137C65.6761 43.0224 65.7531 42.656 65.7531 42.1147V39.2797H69.0361V44.1797H68.2311V40.0497H66.5581V42.1007C66.5581 42.53 66.5115 42.8917 66.4181 43.1857C66.3295 43.4797 66.2011 43.7014 66.0331 43.8507C65.8651 43.9954 65.6831 44.0934 65.4871 44.1447C65.2958 44.1914 65.0788 44.203 64.8361 44.1797ZM73.5135 44.1797V40.8547L71.2035 44.1797H70.5735V39.2797H71.3785V42.6047L73.6885 39.2797H74.3185V44.1797H73.5135ZM80.4841 44.2707C79.7468 44.2707 79.1354 44.028 78.6501 43.5427C78.1648 43.0527 77.9221 42.4484 77.9221 41.7297C77.9221 41.011 78.1648 40.409 78.6501 39.9237C79.1354 39.4337 79.7468 39.1887 80.4841 39.1887C80.9274 39.1887 81.3358 39.2937 81.7091 39.5037C82.0871 39.7137 82.3811 39.9984 82.5911 40.3577L81.8911 40.7637C81.7604 40.521 81.5691 40.3297 81.3171 40.1897C81.0698 40.045 80.7921 39.9727 80.4841 39.9727C79.9614 39.9727 79.5368 40.1384 79.2101 40.4697C78.8881 40.801 78.7271 41.221 78.7271 41.7297C78.7271 42.2384 78.8881 42.6584 79.2101 42.9897C79.5368 43.321 79.9614 43.4867 80.4841 43.4867C80.7921 43.4867 81.0721 43.4167 81.3241 43.2767C81.5761 43.132 81.7651 42.9384 81.8911 42.6957L82.5911 43.0947C82.3858 43.454 82.0941 43.741 81.7161 43.9557C81.3428 44.1657 80.9321 44.2707 80.4841 44.2707ZM89.769 39.2797V44.1797H88.964V40.0497H86.969V44.1797H86.164V39.2797H89.769ZM93.117 39.2797C93.579 39.2797 93.964 39.4337 94.272 39.7417C94.5846 40.0497 94.741 40.4324 94.741 40.8897C94.741 41.3424 94.5846 41.725 94.272 42.0377C93.964 42.3457 93.579 42.4997 93.117 42.4997H92.116V44.1797H91.311V39.2797H93.117ZM93.117 41.7437C93.355 41.7437 93.551 41.6644 93.705 41.5057C93.859 41.3424 93.936 41.137 93.936 40.8897C93.936 40.6424 93.859 40.4394 93.705 40.2807C93.551 40.1174 93.355 40.0357 93.117 40.0357H92.116V41.7437H93.117ZM100.054 43.5357C99.5638 44.0257 98.9642 44.2707 98.2548 44.2707C97.5455 44.2707 96.9435 44.0257 96.4488 43.5357C95.9588 43.041 95.7138 42.439 95.7138 41.7297C95.7138 41.0204 95.9588 40.4207 96.4488 39.9307C96.9435 39.436 97.5455 39.1887 98.2548 39.1887C98.9642 39.1887 99.5638 39.436 100.054 39.9307C100.549 40.4207 100.796 41.0204 100.796 41.7297C100.796 42.439 100.549 43.041 100.054 43.5357ZM97.0158 42.9897C97.3518 43.321 97.7648 43.4867 98.2548 43.4867C98.7448 43.4867 99.1555 43.321 99.4868 42.9897C99.8228 42.6537 99.9908 42.2337 99.9908 41.7297C99.9908 41.2257 99.8228 40.808 99.4868 40.4767C99.1555 40.1407 98.7448 39.9727 98.2548 39.9727C97.7648 39.9727 97.3518 40.1407 97.0158 40.4767C96.6845 40.808 96.5188 41.2257 96.5188 41.7297C96.5188 42.2337 96.6845 42.6537 97.0158 42.9897ZM103.945 41.1697C104.398 41.1697 104.773 41.312 105.072 41.5967C105.371 41.8814 105.52 42.2407 105.52 42.6747C105.52 43.1087 105.371 43.468 105.072 43.7527C104.773 44.0374 104.398 44.1797 103.945 44.1797H102.09V39.2797H105.1V40.0497H102.895V41.1697H103.945ZM103.945 43.4237C104.164 43.4237 104.346 43.356 104.491 43.2207C104.64 43.0807 104.715 42.8987 104.715 42.6747C104.715 42.4507 104.64 42.271 104.491 42.1357C104.346 41.9957 104.164 41.9257 103.945 41.9257H102.895V43.4237H103.945ZM107.55 43.4097H109.72V44.1797H106.745V39.2797H109.685V40.0497H107.55V41.3237H109.51V42.0867H107.55V43.4097ZM113.782 39.2797V40.0497H111.822V44.1797H111.017V39.2797H113.782ZM118.721 43.5357C118.231 44.0257 117.631 44.2707 116.922 44.2707C116.212 44.2707 115.61 44.0257 115.116 43.5357C114.626 43.041 114.381 42.439 114.381 41.7297C114.381 41.0204 114.626 40.4207 115.116 39.9307C115.61 39.436 116.212 39.1887 116.922 39.1887C117.631 39.1887 118.231 39.436 118.721 39.9307C119.215 40.4207 119.463 41.0204 119.463 41.7297C119.463 42.439 119.215 43.041 118.721 43.5357ZM115.683 42.9897C116.019 43.321 116.432 43.4867 116.922 43.4867C117.412 43.4867 117.822 43.321 118.154 42.9897C118.49 42.6537 118.658 42.2337 118.658 41.7297C118.658 41.2257 118.49 40.808 118.154 40.4767C117.822 40.1407 117.412 39.9727 116.922 39.9727C116.432 39.9727 116.019 40.1407 115.683 40.4767C115.351 40.808 115.186 41.2257 115.186 41.7297C115.186 42.2337 115.351 42.6537 115.683 42.9897ZM125.447 39.2797V44.1797H124.642V40.6867L123.151 43.1507H123.053L121.562 40.6797V44.1797H120.757V39.2797H121.625L123.102 41.7297L124.586 39.2797H125.447Z" fill="white"/>
<path d="M61.3492 12.4611C60.539 12.4313 59.7289 12.4611 58.9525 12.5504C61.923 12.8779 63.2395 14.0388 63.2395 14.0388C63.2395 14.0388 61.9568 15.8546 58.75 16.3309C59.3914 16.3904 60.0665 16.45 60.7078 16.45C65.0622 16.45 66.75 14.0686 66.75 14.0686C66.75 14.0686 65.096 12.5802 61.3492 12.4611Z" fill="#FBBF24"/>
<path d="M44.1994 13.8601C5.36767 16.5834 1.31396 26.6153 0 32.7289C0 32.7289 3.5 26 15.6277 21.7244C22.6448 18.612 43.8919 15.6386 48.8681 16.4723C53.8444 17.2782 58.7648 16.3333 58.7648 16.3333C53.7046 16.0555 52.167 14.8327 52.0831 13.221C55.9132 9.49722 68.6614 4.05055 74.8678 3.24467C97.0652 0.345087 104.134 4.05906 113.357 8.90526L113.532 8.99702C105.145 8.7747 75.8742 13.5544 69.8635 16.4723C80.0397 12.7485 125.637 12.8041 132.151 8.60797C118.033 9.44164 105.201 -4.64744 74.2807 1.60511C64.412 3.57814 44.1994 13.8601 44.1994 13.8601Z" fill="white"/>
</svg>
