<svg width="24" height="24" viewBox="0 0 24 24" fill="none" xmlns="http://www.w3.org/2000/svg">
<circle cx="12.0227" cy="12.0227" r="11.5227" stroke="white"/>
<path d="M17.478 15.0002C17.119 14.6991 15.0137 13.3659 14.6638 13.4271C14.4995 13.4563 14.3738 13.5963 14.0374 13.9976C13.8819 14.1951 13.711 14.3801 13.5265 14.5508C13.1884 14.4692 12.8611 14.3478 12.5515 14.1894C11.3371 13.5982 10.3561 12.6168 9.76519 11.4023C9.60675 11.0926 9.48543 10.7654 9.40376 10.4273C9.57451 10.2427 9.75948 10.0719 9.95699 9.91633C10.3578 9.57996 10.4983 9.4551 10.5275 9.28999C10.5887 8.93924 9.25426 6.83474 8.95444 6.47578C8.82876 6.3271 8.71458 6.22729 8.56837 6.22729C8.14451 6.22729 6.22729 8.59794 6.22729 8.90515C6.22729 8.93021 6.26837 11.3982 9.38528 14.5693C12.5564 17.6862 15.0244 17.7273 15.0494 17.7273C15.3567 17.7273 17.7273 15.8101 17.7273 15.3862C17.7273 15.24 17.6275 15.1258 17.478 15.0002Z" fill="white"/>
<path d="M14.8523 12.4999H15.6364C15.6354 11.6684 15.3047 10.8712 14.7167 10.2832C14.1287 9.6952 13.3315 9.36446 12.5 9.36353V10.1476C13.1237 10.1482 13.7216 10.3963 14.1626 10.8373C14.6036 11.2783 14.8517 11.8762 14.8523 12.4999Z" fill="white"/>
<path d="M16.9231 12.5H17.7273C17.7257 11.1141 17.1744 9.78546 16.1945 8.8055C15.2145 7.82554 13.8859 7.2743 12.5 7.27271V8.0769C13.6726 8.07828 14.7969 8.54473 15.6261 9.37392C16.4552 10.2031 16.9217 11.3273 16.9231 12.5Z" fill="white"/>
</svg>
