<svg width="70" height="70" viewBox="0 0 70 70" fill="none" xmlns="http://www.w3.org/2000/svg">
<path d="M46.2292 9.81021L46.8329 11.4231L47.4367 9.81021C47.6888 9.13664 48.0825 8.52499 48.5912 8.01655C49.0999 7.50812 49.7117 7.11472 50.3854 6.86292L51.9896 6.25917L50.3854 5.65542C49.7122 5.40294 49.1009 5.0091 48.5928 4.50044C48.0846 3.99179 47.6914 3.38012 47.4396 2.70667L46.8358 1.09375L46.2292 2.70667C45.9773 3.38012 45.5841 3.99179 45.076 4.50044C44.5678 5.0091 43.9565 5.40294 43.2833 5.65542L41.6704 6.25917L43.2833 6.86292C43.9565 7.11507 44.5678 7.50863 45.0759 8.01704C45.5841 8.52546 45.9773 9.13693 46.2292 9.81021Z" fill="#4B5563"/>
<path d="M57.4248 15.7412L57.8812 16.9633L58.3333 15.7412C58.5243 15.2303 58.8226 14.7663 59.2083 14.3806C59.594 13.9949 60.058 13.6966 60.5689 13.5056L61.791 13.0477L60.5689 12.5898C60.058 12.3989 59.594 12.1005 59.2083 11.7148C58.8226 11.3291 58.5243 10.8651 58.3333 10.3542L57.8754 9.13208L57.4189 10.3542C57.2276 10.8649 56.9291 11.3286 56.5434 11.7143C56.1578 12.0999 55.694 12.3984 55.1833 12.5898L53.9598 13.0477L55.1833 13.5056C55.6951 13.6963 56.16 13.9945 56.5467 14.3802C56.9334 14.7658 57.2328 15.23 57.4248 15.7412Z" fill="#4B5563"/>
<path d="M64.2571 8.95125L64.7135 10.1748L65.1715 8.95125C65.3628 8.44055 65.6613 7.97677 66.047 7.59114C66.4326 7.20551 66.8964 6.90697 67.4071 6.71562L68.6292 6.25916L67.4071 5.80124C66.8961 5.61031 66.4322 5.31192 66.0465 4.92623C65.6608 4.54054 65.3624 4.07655 65.1715 3.56562L64.7135 2.34354L64.2571 3.56562C64.0657 4.07632 63.7672 4.54009 63.3816 4.92572C62.9959 5.31136 62.5322 5.60989 62.0215 5.80124L60.7979 6.25916L62.0215 6.71562C62.5319 6.90747 62.9954 7.20618 63.3809 7.59175C63.7665 7.97732 64.0652 8.44083 64.2571 8.95125Z" fill="#4B5563"/>
<path d="M58.1598 64.3898V67.4275C58.1598 67.6223 58.1983 67.8152 58.273 67.9951C58.3478 68.175 58.4574 68.3383 58.5955 68.4757C58.7336 68.6131 58.8974 68.7219 59.0777 68.7958C59.2579 68.8697 59.451 68.9072 59.6458 68.9063H65.3333C65.7255 68.9063 66.1016 68.7505 66.379 68.4731C66.6563 68.1958 66.8121 67.8197 66.8121 67.4275V61.5723C65.8733 62.5155 64.7485 63.2531 63.5093 63.7382C62.27 64.2233 60.9434 64.4452 59.6137 64.3898H58.1598Z" fill="#4B5563"/>
<path d="M3.10919 61.4862V67.4275C3.10919 67.8197 3.26499 68.1958 3.54231 68.4731C3.81963 68.7504 4.19575 68.9062 4.58794 68.9062H10.2754C10.6676 68.9062 11.0438 68.7504 11.3211 68.4731C11.5984 68.1958 11.7542 67.8197 11.7542 67.4275V64.3898H10.3906C9.04067 64.448 7.69369 64.2193 6.43856 63.7188C5.18343 63.2183 4.04869 62.4574 3.10919 61.4862Z" fill="#4B5563"/>
<path d="M3.15143 55.5625C3.15143 59.7537 6.06809 62.1965 10.3906 62.1965H59.6108C63.9275 62.1965 66.85 59.7537 66.85 55.5625V54.3521H3.15143V55.5625Z" fill="#4B5563"/>
<path d="M67.5208 28.5833L63.875 27.9504C63.5838 27.8996 63.284 27.9485 63.0241 28.0893C62.7642 28.2301 62.5594 28.4546 62.4429 28.7263L61.3083 31.2915L60.8475 30.5885L57.6508 23.0417C57.1352 21.8174 56.3165 20.7445 55.2718 19.924C54.227 19.1035 52.9906 18.5624 51.679 18.3517C46.1593 17.5136 40.5828 17.1065 35 17.134C29.4175 17.1079 23.8415 17.5165 18.3225 18.356C17.0096 18.5657 15.7718 19.1063 14.7257 19.9269C13.6796 20.7474 12.8597 21.8209 12.3433 23.046L9.15397 30.5813L8.70043 31.274L7.55855 28.719C7.44209 28.4473 7.23732 28.2228 6.97741 28.082C6.7175 27.9412 6.41766 27.8923 6.12647 27.9431L2.47918 28.5833C2.14225 28.6378 1.83576 28.8106 1.61472 29.0706C1.39369 29.3307 1.27258 29.661 1.27313 30.0023V30.7183C1.2732 31.047 1.38561 31.3657 1.59171 31.6217C1.79781 31.8776 2.08521 32.0554 2.40626 32.1256L7.39959 33.2675L5.00793 36.9133C3.79754 38.7592 3.1528 40.9185 3.15293 43.1258V52.1675H66.85V43.1258C66.8496 40.9184 66.2044 38.7591 64.9936 36.9133L62.5931 33.25L67.5952 32.1227C67.9163 32.0525 68.2037 31.8747 68.4098 31.6187C68.6159 31.3628 68.7283 31.044 68.7283 30.7154V29.9994C68.7281 29.6584 68.6065 29.3286 68.3853 29.0691C68.164 28.8096 67.8575 28.6374 67.5208 28.5833ZM14.3631 23.9006C14.7316 23.0158 15.3206 22.2401 16.074 21.6476C16.8273 21.0551 17.7199 20.6654 18.6667 20.5158C24.072 19.6954 29.5329 19.2961 35 19.3215C40.4672 19.2961 45.928 19.6954 51.3333 20.5158C52.2793 20.6659 53.1712 21.0556 53.924 21.6478C54.6768 22.24 55.2654 23.0151 55.634 23.8992L58.0913 29.6946H11.9058L14.3631 23.9006ZM9.72418 45.0465C9.29547 44.984 8.89542 44.7942 8.57585 44.5016C8.25628 44.2091 8.03194 43.8274 7.93188 43.4058C7.80005 42.9142 7.74835 42.4045 7.77876 41.8965C7.89688 40.584 8.30959 39.9379 9.14376 39.9379C9.14376 39.9379 14.8633 40.2938 15.6363 40.5315C16.4092 40.7692 19.3754 46.4085 19.3754 46.4085L9.72418 45.0465ZM46.3633 47.234L34.93 47.8873L23.6367 47.25L20.7565 41.141C20.7565 41.141 30.9021 42.0248 34.9986 42.0248C39.095 42.0248 49.2435 41.141 49.2435 41.141L46.3633 47.234ZM62.0667 43.4117C61.9666 43.8332 61.7423 44.215 61.4227 44.5075C61.1031 44.8 60.7031 44.9898 60.2744 45.0523L50.6231 46.4144C50.6231 46.4144 53.5908 40.775 54.3638 40.5373C55.1367 40.2996 60.8548 39.9438 60.8548 39.9438C61.6904 39.9438 62.1017 40.5956 62.2198 41.9023C62.2502 42.4104 62.1985 42.92 62.0667 43.4117Z" fill="#4B5563"/>
</svg>
