<svg width="24" height="24" viewBox="0 0 24 24" fill="none" xmlns="http://www.w3.org/2000/svg">
<g clip-path="url(#clip0_69_4385)">
<path fill-rule="evenodd" clip-rule="evenodd" d="M16.7352 18.1396C19.4813 17.5011 20.8559 14.4146 19.4935 11.9463C19.3932 11.7646 19.2093 11.5132 18.8668 11.1086C18.529 10.7097 18.0697 10.1992 17.442 9.50174L18.5569 8.49829L18.566 8.5084C19.1827 9.19367 19.6573 9.721 20.0116 10.1394C20.3628 10.5543 20.6298 10.9009 20.8067 11.2214C22.65 14.5609 20.7902 18.7367 17.0749 19.6006C16.7183 19.6836 16.2821 19.717 15.7387 19.7335C15.1908 19.7501 14.4815 19.7501 13.5595 19.7501L13.5458 19.7501L10.8101 19.7501L13.5297 22.4697C13.8226 22.7626 13.8226 23.2374 13.5297 23.5303C13.2368 23.8232 12.762 23.8232 12.4691 23.5303L8.47391 19.5351L8.46431 19.5256L7.93871 19L8.46911 18.4697L12.4691 14.4697C12.762 14.1768 13.2368 14.1768 13.5297 14.4697C13.8226 14.7626 13.8226 15.2374 13.5297 15.5303L10.81 18.2501L13.5458 18.2501C14.4842 18.2501 15.1708 18.25 15.6933 18.2342C16.2231 18.2181 16.533 18.1866 16.7352 18.1396ZM16.0601 5L15.5297 4.46967L11.5297 0.469669C11.2368 0.176776 10.7619 0.176776 10.4691 0.469669C10.1762 0.762562 10.1762 1.23744 10.4691 1.53033L13.1887 4.24996L10.453 4.24996L10.4393 4.24996C9.51752 4.24996 8.80801 4.24996 8.26011 4.26654C7.71671 4.28299 7.28051 4.31646 6.92391 4.39937C3.20861 5.26326 1.34881 9.4391 3.19211 12.7786C3.36901 13.0991 3.63601 13.4457 3.98721 13.8606C4.34141 14.279 4.81591 14.8062 5.43261 15.4914L5.44191 15.5017L6.55691 14.4983C5.92911 13.8008 5.46981 13.2903 5.13201 12.8914C4.78951 12.4868 4.60561 12.2354 4.50531 12.0537C3.14291 9.58541 4.51751 6.49892 7.26361 5.86039C7.46581 5.81338 7.77571 5.78189 8.30551 5.76585C8.82801 5.75004 9.51471 5.74996 10.453 5.74996L13.1888 5.74996L10.4691 8.46967C10.1762 8.76256 10.1762 9.23744 10.4691 9.53033C10.762 9.82322 11.2368 9.82322 11.5297 9.53033L15.5297 5.53033L16.0601 5Z" fill="#1F2937"/>
</g>
<defs>
<clipPath id="clip0_69_4385">
<rect width="24" height="24" fill="white" transform="translate(24) rotate(90)"/>
</clipPath>
</defs>
</svg>
