<svg width="24" height="24" viewBox="0 0 24 24" fill="none" xmlns="http://www.w3.org/2000/svg">
<path d="M9.74023 10.1672C9.35192 10.1672 9.03711 10.482 9.03711 10.8704C9.03711 11.2587 9.35192 11.5735 9.74023 11.5735H10.5433V12.3766C10.5433 12.7649 10.8582 13.0797 11.2465 13.0797C11.6348 13.0797 11.9496 12.7649 11.9496 12.3766V11.5735H12.7527C13.1411 11.5735 13.4559 11.2587 13.4559 10.8704C13.4559 10.482 13.1411 10.1672 12.7527 10.1672H11.9496V9.3141H12.7527C13.9596 9.3141 14.9621 8.33906 14.9621 7.10475C14.9621 5.88651 13.971 4.89539 12.7527 4.89539H11.2465C10.8582 4.89539 10.5433 5.2102 10.5433 5.59851V7.90785H9.74023C9.35192 7.90785 9.03711 8.22267 9.03711 8.61098C9.03711 8.99929 9.35192 9.3141 9.74023 9.3141H10.5433V10.1672H9.74023ZM11.9496 6.30164H12.7527C13.1956 6.30164 13.5559 6.66192 13.5559 7.10475C13.5559 7.54893 13.196 7.90785 12.7527 7.90785H11.9496V6.30164Z" fill="#1F2937"/>
<path d="M23.2969 1.88281H0.703125C0.314812 1.88281 0 2.19762 0 2.58594V21.4141C0 21.8024 0.314812 22.1172 0.703125 22.1172H23.2969C23.6852 22.1172 24 21.8024 24 21.4141V2.58594C24 2.19758 23.6852 1.88281 23.2969 1.88281ZM1.40625 16.0922H22.5938V17.6984H1.40625V16.0922ZM22.5938 14.6859H18.7281V3.28906H22.5938V14.6859ZM17.3219 14.6859H6.67814V3.28906H17.3219V14.6859ZM1.40625 3.28906H5.27189V14.6859H1.40625V3.28906ZM22.5938 20.7109H1.40625V19.1046H22.5938V20.7109Z" fill="#1F2937"/>
</svg>
