<svg width="25" height="25" viewBox="0 0 25 25" fill="none" xmlns="http://www.w3.org/2000/svg">
<g clip-path="url(#clip0_69_4392)">
<path d="M12.4991 2.97949C7.24944 2.97949 2.97852 7.25041 2.97852 12.5C2.97852 17.7497 7.24944 22.0206 12.4991 22.0206C17.7487 22.0206 22.0196 17.7497 22.0196 12.5C22.0196 7.25041 17.7487 2.97949 12.4991 2.97949ZM12.4991 4.44419C16.441 4.44419 19.7303 7.29025 20.4211 11.0353C19.9613 10.9645 17.2404 11.469 15.1698 9.26252C13.9982 8.01391 12.4547 8.09647 12.4987 8.1059C11.4766 8.1059 10.5282 8.51674 9.82843 9.26247C8.77121 10.3891 7.24123 11.0353 5.63089 11.0353H4.57704C5.26784 7.29025 8.55717 4.44419 12.4991 4.44419ZM5.0291 15.515C7.86774 14.9175 10.5887 17.2969 10.2846 20.2463C7.89278 19.5616 5.95318 17.7963 5.0291 15.515ZM11.7276 20.5188C12.2246 16.4915 8.5143 13.2141 4.60492 14.1099C4.49902 13.5895 4.44322 13.0512 4.44322 12.5C4.92837 12.4229 8.32033 13.01 10.8966 10.2648C11.7624 9.34191 13.229 9.33473 14.1016 10.2648C16.6804 13.0127 20.0581 12.421 20.555 12.5C20.555 13.0512 20.4992 13.5895 20.3933 14.1099C16.4759 13.2125 12.7747 16.5 13.2706 20.5188C12.7718 20.5664 12.2655 20.5701 11.7276 20.5188ZM14.7136 20.2463C14.4091 17.2936 17.1338 14.9181 19.9691 15.5149C19.045 17.7963 17.1054 19.5616 14.7136 20.2463Z" fill="#1F2937"/>
<path d="M14.6959 13.2323C14.6959 12.0209 13.7103 11.0353 12.4988 11.0353C11.2873 11.0353 10.3018 12.0209 10.3018 13.2323C10.3018 14.4438 11.2873 15.4294 12.4988 15.4294C13.7103 15.4294 14.6959 14.4438 14.6959 13.2323ZM12.4988 13.9647C12.095 13.9647 11.7665 13.6362 11.7665 13.2323C11.7665 12.8285 12.095 12.5 12.4988 12.5C12.9027 12.5 13.2312 12.8285 13.2312 13.2323C13.2312 13.6362 12.9027 13.9647 12.4988 13.9647Z" fill="#1F2937"/>
<path d="M21.3266 3.67215C18.9594 1.3049 15.8243 0.0012207 12.4988 0.0012207C5.61664 0.0012207 0 5.6183 0 12.5C0 19.3822 5.61708 24.9988 12.4988 24.9988C15.8243 24.9988 18.9594 23.6951 21.3266 21.3278C26.2236 16.4309 26.2253 8.57084 21.3266 3.67215ZM12.4988 23.5341C6.41456 23.5341 1.4647 18.5842 1.4647 12.5C1.4647 6.41578 6.41456 1.46592 12.4988 1.46592C18.583 1.46592 23.5329 6.41578 23.5329 12.5C23.5329 18.5842 18.583 23.5341 12.4988 23.5341Z" fill="#1F2937"/>
</g>
<defs>
<clipPath id="clip0_69_4392">
<rect width="25" height="25" fill="white"/>
</clipPath>
</defs>
</svg>
